<svg width="35" height="35" viewBox="0 0 35 35" fill="none" xmlns="http://www.w3.org/2000/svg">
<path d="M30.8162 12.4404L31.1205 12.6588H31.4043V12.1125L32.299 12.0258L33.1489 12.6588H34.5458L34.6439 12.569C34.5039 12.0981 34.3465 11.6355 34.1699 11.182L33.2585 11.1972L32.8012 10.6951L32.7129 9.88783L32.2443 10.1435L31.9932 11.1303L31.3168 10.4105L31.2894 9.73034L30.6366 9.16808L30.3962 8.92842H29.6392L29.8773 9.60328L30.7888 10.1115L30.947 10.2797L30.7492 10.3786L30.7583 10.9134L30.314 11.0991L29.9351 11.0162L29.6977 10.6806L30.3148 10.7133L30.4814 10.4889L29.1157 9.56752L29.0107 9.17493L28.4561 9.67708L27.8938 9.56143L27.0379 10.6745L26.8689 11.1105L26.3211 11.1599L25.5109 11.1653L25.0262 10.9385L24.8832 9.97609L25.0574 9.5173L25.8821 9.33699L26.7815 9.5173L26.8918 9.01972L26.5098 8.92918L26.6399 8.15388L27.5453 8.01237L28.1783 7.11839L28.8319 7.00883L29.4216 7.09632H29.6392L29.5189 6.25636L28.8022 6.54548L28.5496 5.91779L28.1335 5.85996L28.0551 5.43009L28.3944 5.06032L29.2017 4.74382L29.4094 4.37253C26.3242 1.65482 22.2803 0 17.8553 0C14.0154 0 10.463 1.24625 7.57413 3.35148L8.45671 3.34464L8.85006 3.56224L9.59111 3.72201L9.64894 4.01341L10.8275 4.05678L10.6677 3.67864L9.62078 3.64897L9.8673 3.41692L9.78132 3.13997H8.83484L9.8673 2.36924H10.8564L11.3213 3.00987L12.0927 3.05324L12.5576 2.60206L12.9068 2.77629L12.2662 3.4017C12.2662 3.4017 11.3798 3.41768 11.4232 3.41768C11.4666 3.41768 11.4962 4.02787 11.4962 4.02787L12.5713 3.9982L12.6877 3.70832L13.4288 3.66419L13.5163 3.22823L13.0803 3.15443L13.2256 2.76184L13.5596 2.66065L14.723 2.71847L14.0816 3.30051L14.185 3.75092L14.8538 3.85288L14.8104 3.03878L15.4503 2.70401L16.5847 2.57315L18.2274 3.30051V3.92592L18.7508 4.05678L18.4883 4.55132H17.7465L17.5266 5.11815L15.8338 4.71871L17.166 4.00885L16.6585 3.57745L15.5097 3.72277L15.4092 3.82701L15.4054 3.82549L15.3879 3.84983L15.057 4.19373L14.5099 4.23862L14.5533 4.511L14.7443 4.59013L14.7366 4.67991L14.2916 4.74305L14.2588 5.00098L13.8335 5.02304L13.7567 4.51024L12.9936 4.74229L11.4339 5.6553L11.6089 6.2982L12.0448 6.58276L12.9167 6.70297V7.69434L13.32 7.62967L13.6913 6.85514L14.6187 6.56145V5.37227L15.1346 4.98272L16.3816 5.27716L16.2941 6.06311H16.6289L17.5457 5.61269L17.5898 6.64438L18.257 7.05143L18.2289 7.66314L17.5898 7.88074L17.6332 8.08313L18.4039 8.43387L18.3879 8.85538L18.165 8.8744C18.1642 8.86755 18.1627 8.86298 18.1627 8.86298L17.1903 8.56321L17.1493 8.25127H17.1485L17.4331 8.05574V7.77118L17.1272 7.69434L17.0511 7.95683L16.5147 8.03976L16.4615 8.02226V8.04889L16.2758 8.07704L16.1244 7.77118L15.9494 7.69434H15.5675L15.394 7.83738V8.15388L15.7204 8.26268L16.043 8.30833L15.9707 8.34029L15.6763 8.66669L15.5469 8.50387L15.2624 8.42855L14.4871 9.15743L14.5883 9.24036L13.444 9.87414L12.3674 10.9941L12.2936 11.4924L11.2147 12.2015L10.6799 12.7394L10.7392 13.8153L9.9974 13.4698L10.0027 12.8406L7.93858 12.8414L6.8696 13.3824L6.40549 14.2383L6.22137 14.917L6.5219 15.5751L7.36414 15.6778L8.70245 14.7831L8.81962 15.2266L8.41105 15.9981L9.42981 16.1723L9.53177 17.7458L10.9279 17.9831L11.815 16.9575L12.8916 17.1766L13.2698 17.7024L14.3022 17.6415L14.3311 17.3364L14.8987 17.6118L15.5386 18.6146L16.6433 18.6298L17.0511 19.3435L17.1089 20.2154L18.3308 20.6803L19.8723 20.6963L20.3235 21.4366L21.0067 21.6557L20.8758 22.2682L20.1272 23.2192L19.9088 25.326L19.2324 25.8601L18.2296 25.8304L17.8956 26.4117L18.1437 27.5042L17.0519 28.8996L16.7034 29.5402L15.6633 30.0393L14.9794 30.1436L14.9512 30.4335L15.4313 30.5712L15.3735 30.8839L14.9436 31.2978L15.2046 31.6272L15.7219 31.6417L15.693 32.0403L15.5553 32.4337L15.5112 32.7533L16.2766 33.3977L16.1746 33.7324L15.133 33.7127L14.0968 32.8088L13.2895 31.3898L13.4021 30.0203L12.7912 29.2055L13.0385 27.8246L12.6755 27.7234V24.7272C12.6755 24.7272 11.6575 23.9557 11.599 23.9557C11.5404 23.9557 11.0603 23.8248 11.0603 23.8248L10.9583 23.2588L9.63524 21.6001L9.7661 21.0044L9.80947 20.0298L10.7255 19.3892L10.5947 18.2981L9.2571 18.1977L8.21019 17.0047L7.46838 16.7993L6.98905 16.711L7.04688 16.2751L6.43592 16.1883V16.4356L4.90816 16.0544L4.29341 15.114L4.54372 14.6583L3.5767 13.2469L3.41084 12.2145H3.01825L3.14835 13.2173L3.81712 14.2497L3.74408 14.6575L3.17726 14.57L2.47957 13.3808V11.9969L1.75221 11.6476V10.6517C0.854427 12.7562 0.356079 15.0706 0.356079 17.5C0.356079 27.1497 8.20639 35 17.8561 35C23.3265 35 28.2171 32.4755 31.4286 28.5314H30.8512V27.368L30.1832 26.4687V25.0696L29.6734 24.5613L29.6285 23.9793L30.2767 22.7429L29.0495 20.5753L29.1933 19.1046L28.0886 18.9905L27.6815 18.5834H26.9389L26.5616 18.9319H25.2522L25.208 19.0483H24.4799L22.8091 17.1439L22.8228 15.6603L23.099 15.5591L23.2017 14.9915H22.8091L22.6486 14.3958L24.5819 13.0004V12.0113L25.5284 11.4856L25.9118 11.5236H26.6902L27.2996 11.1965L29.2633 11.0435V12.0471L30.8162 12.4404ZM25.9073 6.20082L26.067 5.95431L26.6422 5.8379L26.786 6.53635L27.0919 7.03013L27.295 7.26371L27.6655 7.40827L27.3163 7.82368L26.6399 7.88835H26.1317L26.1888 7.28501L26.6118 7.19751L26.576 6.91372L26.1819 6.66645L25.9065 6.47776L25.9073 6.20082ZM24.9631 7.29186L25.3123 6.73188L25.7832 6.62232L26.118 6.76764L26.0876 7.14578L25.3678 7.65478H24.9615V7.29186H24.9631ZM15.4549 9.44426L15.0904 9.4747L15.1102 9.22134L15.273 9.01819L15.4922 9.19014L15.4549 9.44426ZM16.7323 8.99689L16.4835 9.01819L16.4333 9.25862L16.2416 9.37807L15.9342 9.40394C15.9236 9.33166 15.9175 9.27688 15.9175 9.27688H15.798V9.01819H16.2994L16.4029 8.75114L16.6022 8.74734L16.8297 8.79451L16.7323 8.99689Z" fill="#FF7A00"/>
</svg>
