<svg width="35" height="35" viewBox="0 0 35 35" fill="none" xmlns="http://www.w3.org/2000/svg">
<path d="M31.9238 4.16992H3.07617C1.38209 4.16992 0 5.55051 0 7.24609V27.7539C0 29.4438 1.37594 30.8301 3.07617 30.8301H31.9238C33.6137 30.8301 35 29.4541 35 27.7539V7.24609C35 5.55625 33.6241 4.16992 31.9238 4.16992ZM31.499 6.2207L17.5652 20.1546L3.51087 6.2207H31.499ZM2.05078 27.3293V7.66097L11.9273 17.4528L2.05078 27.3293ZM3.50089 28.7793L13.3836 18.8966L16.8465 22.3297C17.2473 22.7272 17.8942 22.7259 18.2934 22.3266L21.6699 18.9501L31.4991 28.7793H3.50089ZM32.9492 27.3292L23.12 17.5L32.9492 7.67074V27.3292Z" fill="#FF7A00"/>
</svg>
