<svg width="28" height="28" viewBox="0 0 28 28" fill="none" xmlns="http://www.w3.org/2000/svg">
<g clip-path="url(#clip0_290_3)">
<path d="M19.494 0H7.94799C6.84299 0 5.95099 0.896 5.95099 1.999V25.445C5.95099 26.547 6.84299 27.442 7.94799 27.442H19.494C20.597 27.442 21.491 26.547 21.491 25.445V1.999C21.491 0.896 20.597 0 19.494 0ZM10.872 1.214H16.572C16.716 1.214 16.833 1.429 16.833 1.695C16.833 1.961 16.716 2.177 16.572 2.177H10.872C10.727 2.177 10.612 1.961 10.612 1.695C10.612 1.429 10.727 1.214 10.872 1.214ZM13.722 25.469C13.019 25.469 12.447 24.897 12.447 24.193C12.447 23.489 13.019 22.919 13.722 22.919C14.423 22.919 14.995 23.489 14.995 24.193C14.995 24.897 14.423 25.469 13.722 25.469ZM19.995 21.1H7.44799V3.373H19.995V21.1Z" fill="#FF7A00"/>
</g>
<defs>
<clipPath id="clip0_290_3">
<rect width="27.442" height="27.442" fill="white"/>
</clipPath>
</defs>
</svg>
